<svg xmlns="http://www.w3.org/2000/svg" viewBox="0 0 512 512">
  <path d="M 158.75 83.25 C 167.23 97.38 165.35 115.26 162.25 130.75 C 156.76 158.18 146.76 183.69 133.25 208.25 C 101.98 265.11 47.61 309.63 72.50 380.75 C 74.83 387.41 81.15 406.38 86.25 410.75 C 88.15 412.38 110.22 393.15 115.75 389.00 C 118.54 386.91 123.53 385.34 125.75 382.75 C 128.15 379.95 120.68 372.95 119.25 370.75 C 113.57 362.01 110.00 351.11 110.00 340.75 C 110.00 331.74 109.10 322.21 110.00 313.25 C 113.34 279.89 157.51 219.06 172.50 185.75 C 178.42 172.59 180.20 155.15 186.50 143.25 C 186.86 142.56 188.19 140.60 189.25 140.50 C 189.73 140.46 190.22 140.85 190.50 141.25 C 199.00 153.52 202.01 170.59 209.25 183.75 C 213.17 190.88 214.83 199.12 218.75 206.25 C 227.72 222.56 236.86 239.26 244.50 256.25 C 246.76 261.27 249.34 269.84 253.25 273.75 C 255.98 276.48 259.03 267.06 259.75 265.75 C 274.38 239.15 289.21 211.46 300.50 183.25 C 303.26 176.34 316.16 141.61 321.00 139.00 C 322.66 138.10 326.33 154.66 326.75 156.75 C 329.73 171.66 337.32 185.52 343.50 199.25 C 362.31 241.05 392.77 275.20 399.75 321.75 C 401.85 335.74 399.27 353.93 393.50 366.75 C 392.11 369.84 381.87 380.98 384.25 383.75 C 388.78 389.03 398.66 391.53 404.25 396.00 C 409.78 400.43 415.21 408.10 421.75 411.00 C 430.09 414.71 441.10 365.27 442.75 354.25 C 450.13 305.05 409.53 257.15 383.00 219.25 C 373.25 205.32 365.48 187.26 358.50 171.75 C 348.57 149.67 343.79 123.40 345.00 99.25 C 345.72 84.83 352.20 85.35 350.25 82.75 C 348.25 80.08 334.89 82.00 331.75 82.00 C 326.75 82.00 321.75 82.00 316.75 82.00 C 315.92 82.00 315.08 82.00 314.25 82.00 C 312.20 82.00 309.40 81.47 307.50 82.50 C 304.92 83.91 304.73 94.68 303.50 97.75 C 292.95 124.12 285.24 151.67 273.50 177.75 C 268.72 188.37 263.84 203.78 256.50 212.75 C 254.95 214.64 252.79 209.37 252.50 208.75 C 245.06 193.04 236.96 177.40 230.50 161.25 C 222.36 140.90 212.06 120.00 206.75 98.75 C 205.82 95.01 206.49 85.20 203.50 82.75 C 201.41 81.04 196.75 82.00 194.25 82.00 C 182.58 82.00 170.92 82.00 159.25 82.00 Z M 187.50 174.25 C 179.63 193.91 179.87 218.46 176.75 239.25 C 173.35 261.92 167.82 284.48 162.25 306.75 C 159.49 317.80 154.59 331.57 149.50 341.75 C 146.02 348.71 138.32 354.42 135.75 361.75 C 134.80 364.46 136.51 367.13 138.00 369.25 C 140.43 372.72 143.33 376.18 146.25 379.25 C 163.10 396.98 182.52 410.41 205.25 419.50 C 216.07 423.83 230.81 429.19 242.75 428.00 C 242.96 427.98 237.92 426.56 237.75 426.50 C 233.57 425.04 229.29 423.32 225.25 421.50 C 214.52 416.67 203.50 408.71 197.75 398.25 C 178.91 364.00 193.18 322.08 195.00 285.75 C 195.26 280.50 199.32 249.89 203.25 252.75 C 204.27 253.49 242.33 340.98 248.25 351.75 C 249.32 353.69 251.63 362.37 255.00 361.25 C 259.95 359.60 264.67 344.83 266.50 340.25 C 273.25 323.38 281.04 306.82 288.50 290.25 C 293.62 278.87 298.40 266.09 304.50 255.25 C 304.90 254.53 306.09 252.99 307.25 253.25 C 307.52 253.31 309.94 266.37 310.75 271.75 C 315.21 301.49 324.11 350.17 319.75 379.25 C 318.64 386.68 317.16 395.10 313.50 401.75 C 311.04 406.21 292.73 421.37 292.50 422.50 C 292.06 424.70 307.49 418.81 310.75 417.50 C 334.07 408.17 352.86 393.24 369.00 374.25 C 370.75 372.20 374.65 369.84 374.50 366.75 C 374.06 358.01 362.78 347.45 359.50 339.25 C 347.90 310.26 337.90 280.25 333.25 249.25 C 330.26 229.33 328.20 209.02 324.25 189.25 C 323.45 185.26 323.32 177.38 320.50 174.25 C 319.67 173.33 318.35 175.66 317.75 176.75 C 313.29 184.86 310.20 193.65 305.75 201.75 C 299.23 213.60 259.81 299.08 254.00 299.50 C 251.95 299.65 249.66 292.77 248.75 291.25 C 231.05 261.75 215.61 230.10 201.50 198.75 C 198.41 191.88 195.05 177.70 188.75 173.50 Z" fill="currentColor" fill-rule="evenodd"/>
</svg>
